<svg width="363" height="888" viewBox="0 0 363 888" fill="none" xmlns="http://www.w3.org/2000/svg">
<path d="M213.457 827.74V777.337C213.457 773.426 211.905 769.675 209.141 766.908C206.377 764.14 202.628 762.583 198.717 762.579H148.296L148.296 827.74H213.457ZM153.216 822.821L153.216 767.498H198.717C201.323 767.503 203.821 768.542 205.662 770.386C207.504 772.231 208.538 774.731 208.538 777.337V822.821H153.216Z" fill="#1B1B1B"/>
<path d="M0 822.821L0 888L273.77 888L273.77 741.622C273.761 731.19 269.614 721.188 262.239 713.81C254.864 706.432 244.864 702.28 234.432 702.266H88.0363L88.0363 822.821H0ZM92.9558 707.185H234.432C243.562 707.195 252.316 710.826 258.772 717.282C265.228 723.738 268.859 732.492 268.869 741.622L268.869 883.08L4.91952 883.08L4.91952 827.74H92.9558L92.9558 707.185Z" fill="#1B1B1B"/>
<path d="M88.285 39.3562L88.285 179.927H88.0363L88.0363 245.337L256.099 301.369L88.0363 301.369L88.0363 366.531L273.717 366.531V241.802L105.654 185.734L362.002 185.734V120.555H274.019L274.019 0L127.641 0C117.206 0.00939941 107.201 4.15887 99.8225 11.5375C92.4439 18.9162 88.2944 28.9211 88.285 39.3562ZM268.798 361.611L92.9736 361.611L92.9736 306.271L268.798 306.271V361.611ZM268.798 245.337V300.393L92.9736 241.785L92.9736 186.729L268.798 245.337ZM269.1 4.91949L269.1 125.474H357.083V180.815L93.2045 180.815L93.2045 39.3562C93.2139 30.2259 96.8451 21.4722 103.301 15.0161C109.757 8.56006 118.511 4.92889 127.641 4.91949L269.1 4.91949Z" fill="#1B1B1B"/>
<path d="M148.545 75.0005V125.474L213.759 125.474V60.2597L163.285 60.2597C159.377 60.2644 155.631 61.8189 152.867 64.5824C150.104 67.3458 148.549 71.0925 148.545 75.0005ZM208.929 65.1793V120.555L153.464 120.555V75.0005C153.469 72.3972 154.505 69.9019 156.346 68.061C158.187 66.2202 160.682 65.184 163.285 65.1793L208.929 65.1793Z" fill="#1B1B1B"/>
<path d="M88.0363 420.628L88.0363 506.711H108.336C102.186 510.116 97.0607 515.105 93.491 521.161C89.9213 527.217 88.0379 534.118 88.0363 541.147L88.0363 687.525H273.77V622.346H153.216L153.216 576.845C153.221 574.647 153.959 572.514 155.314 570.784C156.668 569.053 158.561 567.823 160.693 567.29C161.466 567.102 162.259 567.006 163.055 567.006H273.77L273.77 501.791L153.216 501.791V456.29C153.243 454.096 153.992 451.971 155.346 450.244C156.701 448.518 158.586 447.284 160.71 446.735C161.475 446.535 162.264 446.439 163.055 446.451L273.77 446.451L273.77 381.289L127.393 381.289C116.961 381.299 106.958 385.446 99.5802 392.821C92.202 400.196 88.0505 410.196 88.0363 420.628ZM268.851 386.209L268.851 441.549L163.055 441.549C161.858 441.535 160.665 441.672 159.503 441.958C156.305 442.757 153.466 444.601 151.436 447.197C149.406 449.794 148.301 452.994 148.296 456.29V506.711L268.851 506.711L268.851 562.086H163.055C161.857 562.08 160.664 562.224 159.503 562.512C156.307 563.315 153.469 565.159 151.439 567.755C149.41 570.351 148.304 573.55 148.296 576.845L148.296 627.265H268.851V682.606H93.0269L93.0269 541.147C93.0363 532.017 96.6675 523.263 103.124 516.807C109.58 510.351 118.333 506.72 127.464 506.711V501.791H92.9559L92.9559 420.628C92.97 411.501 96.6032 402.752 103.059 396.299C109.514 389.847 118.265 386.218 127.393 386.209L268.851 386.209Z" fill="#1B1B1B"/>
</svg>
