<svg width="881" height="1024" viewBox="0 0 881 1024" fill="none" xmlns="http://www.w3.org/2000/svg">
<path d="M798.778 86.5036C796.937 84.6631 795.097 83.7428 795.097 83.7428C787.735 79.1416 779.453 73.6201 771.17 69.0188C713.194 34.9695 646.936 12.8835 580.678 4.60125L572.396 3.681H570.556H568.715C566.875 3.681 564.114 3.681 562.273 2.76075L553.991 1.8405H553.071H552.151C546.629 1.8405 541.108 0.920251 535.586 0.920251C534.666 0.920251 532.825 0.920251 530.065 0.920251L524.543 0C518.101 0 510.739 0 506.138 0C464.727 0.920251 424.236 5.52151 385.585 15.6443C369.021 20.2455 356.137 23.9265 343.254 28.5278C335.892 31.2885 329.45 33.129 323.008 35.8898C316.566 38.6505 309.204 41.4113 302.763 44.172C299.082 46.0125 296.321 46.9328 292.64 48.7733L287.118 51.534C276.996 57.0556 266.873 62.5771 256.75 68.0986C255.83 69.0188 254.91 69.0188 254.91 69.9391L251.228 72.6998C248.468 73.6201 246.627 75.4606 244.787 77.3011C242.026 79.1416 238.345 80.9821 235.584 82.8226C90.1846 176.688 0 341.413 0 513.5C0 596.323 20.2455 678.225 57.9758 750.004C58.8961 752.765 60.7366 755.526 62.5771 758.287C63.4973 760.127 64.4176 761.048 64.4176 761.968C66.2581 765.649 68.0986 769.33 70.8593 773.011C75.4606 780.373 79.1416 787.735 83.7428 794.177L85.5833 796.937C87.4238 799.698 89.2643 802.459 92.0251 806.14L93.8656 808.901C95.7061 811.661 97.5466 813.502 98.4668 814.422C103.988 821.784 109.51 830.066 115.952 836.508C117.792 839.269 120.553 842.03 122.393 843.87C127.915 850.312 133.436 856.754 139.878 863.195C147.24 871.478 154.602 878.84 162.884 886.202C185.891 907.367 210.737 927.613 236.504 944.177C237.425 945.098 238.345 945.098 240.185 946.938C257.67 957.981 276.075 968.104 295.401 977.306L305.523 981.908L418.714 556.752H676.384L776.692 177.608C877.919 259.511 938.656 383.745 938.656 513.5C938.656 731.599 775.771 912.889 558.592 935.895L552.151 936.815L527.304 1027L540.187 1026.08C812.582 1012.28 1027 786.815 1027 513.5C1027 341.413 941.417 182.21 798.778 86.5036ZM100.307 610.126C92.9453 578.838 89.2643 546.629 89.2643 513.5C89.2643 406.751 129.755 303.683 202.455 225.461L100.307 610.126ZM249.388 846.631C212.578 818.103 181.289 783.134 156.443 743.563L316.566 137.117C345.094 122.393 375.462 110.43 406.751 102.148C420.555 98.4669 434.358 95.7061 448.162 93.8656L249.388 846.631ZM606.445 469.328H440.8L541.108 90.1846C595.402 93.8656 647.857 107.669 696.63 130.676L606.445 469.328Z" fill="#1B1B1B"/>
</svg>
