<svg width="30" height="33" viewBox="0 0 30 33" fill="none" xmlns="http://www.w3.org/2000/svg">
<path d="M22.8063 22.7313L19.5572 19.2252L16.8107 16.4016L29.6596 2.6485C29.8269 2.47102 29.9386 2.2484 29.9807 2.00816C30.0229 1.76792 29.9937 1.52059 29.8968 1.29674C29.8 1.07289 29.6396 0.882346 29.4356 0.748654C29.2316 0.614961 28.9929 0.543984 28.7489 0.544497H19.5797H1.51735C1.1865 0.544922 0.869327 0.676539 0.635384 0.910482C0.40144 1.14443 0.269824 1.4616 0.269399 1.79244V11.7054C0.269399 11.7343 0.269399 11.76 0.269399 11.8017C0.272746 11.9227 0.292742 12.0427 0.328825 12.1583L0.357735 12.245C0.406332 12.3656 0.473534 12.4777 0.556893 12.5775L4.15297 16.4016L0.421979 20.3976L0.38022 20.449C0.283594 20.5681 0.209073 20.7036 0.160183 20.8489C0.116342 20.9734 0.0930169 21.1041 0.0911207 21.236L-0.000427591 29.1333V30.3427C0.000118901 30.4275 0.00981157 30.512 0.0284824 30.5948C0.00834778 30.6833 -0.00135493 30.7739 -0.000427591 30.8646C-3.78434e-06 31.1956 0.131561 31.513 0.365459 31.7472C0.599357 31.9814 0.916527 32.1133 1.24752 32.1142L28.712 32.1222C28.9652 32.121 29.212 32.043 29.4199 31.8985C29.6278 31.7541 29.7869 31.55 29.8764 31.3131C29.9658 31.0763 29.9813 30.8179 29.9208 30.5721C29.8603 30.3263 29.7267 30.1046 29.5375 29.9363L22.8063 22.7313ZM14.2233 15.515C14.112 15.6324 14.0253 15.7709 13.9685 15.9224C13.9117 16.0739 13.8858 16.2352 13.8924 16.3968C13.8803 16.5696 13.9048 16.7431 13.9643 16.9058C14.0238 17.0686 14.117 17.2169 14.2377 17.3412L17.7551 20.9421L25.8322 29.6151H20.031L7.5772 16.3952L20.0486 3.04521H25.8724L14.2233 15.515ZM16.6003 29.6167H2.50832L2.57898 21.7468L5.8683 18.2246L16.6003 29.6167ZM2.7669 11.2878V3.042H16.6324L5.86187 14.5739L2.7669 11.2878Z" fill="#787676"/>
</svg>
