<svg width="17" height="16" viewBox="0 0 17 16" fill="none" xmlns="http://www.w3.org/2000/svg">
<path d="M3.78335 2.16665C3.78313 2.60867 3.60732 3.03251 3.2946 3.34491C2.98188 3.65732 2.55787 3.8327 2.11585 3.83248C1.67382 3.83226 1.24998 3.65645 0.937578 3.34373C0.625174 3.03102 0.449791 2.60701 0.450012 2.16498C0.450233 1.72295 0.62604 1.29912 0.938757 0.986712C1.25147 0.674307 1.67549 0.498925 2.11751 0.499146C2.55954 0.499367 2.98338 0.675173 3.29578 0.98789C3.60818 1.30061 3.78357 1.72462 3.78335 2.16665ZM3.83335 5.06665H0.500012V15.5H3.83335V5.06665ZM9.10001 5.06665H5.78335V15.5H9.06668V10.025C9.06668 6.97498 13.0417 6.69165 13.0417 10.025V15.5H16.3333V8.89165C16.3333 3.74998 10.45 3.94165 9.06668 6.46665L9.10001 5.06665Z" fill="white"/>
</svg>
