<svg width="151" height="62" viewBox="0 0 151 62" fill="none" xmlns="http://www.w3.org/2000/svg">
<path d="M11.0834 0H0V46.5533H24.8908C26.6647 46.5517 28.3656 45.8465 29.6202 44.5925C30.8748 43.3384 31.5808 41.6379 31.5832 39.864V14.9732H11.0834V0ZM11.0834 35.4639V26.0535H20.4937V33.7908C20.4929 34.2343 20.3164 34.6594 20.0028 34.9729C19.6892 35.2865 19.2641 35.4631 18.8206 35.4639H11.0834Z" fill="#CEDF00"/>
<path d="M144.311 15.0124H120.407V14.9732H109.282L99.7566 43.5454V14.9732H88.6732V46.5442H109.886L119.42 17.969V61.5597H130.503V46.5956H151V21.7047C150.998 19.9308 150.293 18.23 149.039 16.9754C147.785 15.7208 146.085 15.0148 144.311 15.0124ZM139.92 27.784V35.5152H130.503V26.0958H138.247C138.467 26.0962 138.686 26.1403 138.89 26.2254C139.094 26.3106 139.279 26.4352 139.434 26.5921C139.59 26.749 139.712 26.935 139.796 27.1396C139.879 27.3441 139.921 27.5631 139.92 27.784Z" fill="#CEDF00"/>
<path d="M79.4743 14.9732H64.8364V18.422C64.2578 17.3765 63.4099 16.505 62.3807 15.898C61.3515 15.291 60.1785 14.9706 58.9836 14.9701H34.0928V46.5533H45.1732V26.0535H52.9104C53.2847 26.055 53.6479 26.1811 53.9427 26.4118C54.2374 26.6426 54.4469 26.9649 54.5382 27.328C54.5693 27.4585 54.5845 27.5924 54.5835 27.7266V46.5533H65.6729V26.0535H73.4102C73.7836 26.0586 74.145 26.186 74.439 26.4162C74.7331 26.6464 74.9435 26.9667 75.0379 27.328C75.0693 27.4585 75.0845 27.5924 75.0832 27.7266V46.5533H86.1666V21.6625C86.1642 19.8886 85.4583 18.188 84.2037 16.934C82.949 15.6799 81.2482 14.9748 79.4743 14.9732Z" fill="#CEDF00"/>
</svg>
