<svg width="53" height="53" viewBox="0 0 53 53" fill="none" xmlns="http://www.w3.org/2000/svg">
<path d="M41.1504 4.45638C41.0556 4.36157 40.9608 4.31416 40.9608 4.31416C40.5815 4.07712 40.1549 3.79267 39.7282 3.55563C36.7415 1.80152 33.3281 0.663717 29.9147 0.237042L29.488 0.189633H29.3932H29.2984C29.2035 0.189633 29.0613 0.189633 28.9665 0.142225L28.5398 0.0948167H28.4924H28.445C28.1606 0.0948167 27.8761 0.0474083 27.5917 0.0474083C27.5442 0.0474083 27.4494 0.0474083 27.3072 0.0474083L27.0228 0C26.6909 0 26.3116 0 26.0746 0C23.9412 0.0474083 21.8552 0.28445 19.8641 0.805942C19.0107 1.04298 18.347 1.23262 17.6833 1.46966C17.304 1.61188 16.9722 1.7067 16.6403 1.84893C16.3085 1.99115 15.9292 2.13338 15.5973 2.2756C15.4077 2.37042 15.2655 2.41783 15.0759 2.51264L14.7914 2.65487C14.2699 2.93932 13.7484 3.22377 13.2269 3.50822C13.1795 3.55563 13.1321 3.55563 13.1321 3.60303L12.9425 3.74526C12.8003 3.79267 12.7054 3.88748 12.6106 3.9823C12.4684 4.07712 12.2788 4.17193 12.1365 4.26675C4.64602 9.1024 0 17.5885 0 26.4539C0 30.7206 1.04298 34.94 2.98673 38.6378C3.03413 38.78 3.12895 38.9223 3.22377 39.0645C3.27118 39.1593 3.31858 39.2067 3.31858 39.2541C3.4134 39.4437 3.50822 39.6334 3.65044 39.823C3.88748 40.2023 4.07712 40.5815 4.31416 40.9134L4.40898 41.0556C4.50379 41.1979 4.59861 41.3401 4.74083 41.5297L4.83565 41.6719C4.93047 41.8142 5.02528 41.909 5.07269 41.9564C5.35714 42.3357 5.64159 42.7623 5.97345 43.0942C6.06827 43.2364 6.21049 43.3786 6.30531 43.4735C6.58976 43.8053 6.87421 44.1372 7.20607 44.469C7.58534 44.8957 7.9646 45.275 8.39128 45.6542C9.57649 46.7446 10.8565 47.7876 12.1839 48.641C12.2314 48.6884 12.2788 48.6884 12.3736 48.7832C13.2743 49.3521 14.2225 49.8736 15.2181 50.3477L15.7396 50.5847L21.5708 28.6821H34.8451L40.0126 9.14981C45.2276 13.3692 48.3565 19.7693 48.3565 26.4539C48.3565 37.6896 39.9652 47.0291 28.7769 48.2143L28.445 48.2617L27.165 52.9077L27.8287 52.8603C41.8616 52.1492 52.9077 40.5341 52.9077 26.4539C52.9077 17.5885 48.4987 9.38685 41.1504 4.45638ZM5.16751 31.4317C4.78824 29.8199 4.59861 28.1606 4.59861 26.4539C4.59861 20.9545 6.68458 15.6448 10.4298 11.615L5.16751 31.4317ZM12.8477 43.6157C10.9513 42.146 9.33944 40.3445 8.05942 38.3059L16.3085 7.06384C17.7781 6.30531 19.3426 5.689 20.9545 5.26233C21.6656 5.07269 22.3767 4.93047 23.0879 4.83565L12.8477 43.6157ZM31.2421 24.1783H22.7086L27.8761 4.64602C30.6732 4.83565 33.3755 5.54678 35.8881 6.73199L31.2421 24.1783Z" fill="white"/>
</svg>
